#Comment line ignore any data following # character 
#Hierarchical Translation and Rotation (.htr) file 
[Header]	
#Header keywords are followed by a single value 
FileType HTR		#Single word string
DataType HTRS		#Translation followed by rotation and scale data
FileVersion 1		#integer
NumSegments 84		#integer
NumFrames 2		#integer
DataFrameRate 30		#integer, data frame rate in this file
EulerRotationOrder ZYX
CalibrationUnits mm
RotationUnits Degrees
GlobalAxisofGravity Y
BoneLengthAxis Y
ScaleFactor 1.00
[SegmentNames&Hierarchy]
#CHILD	PARENT
MASTER GLOBAL
root MASTER
chest root
L_mid_tent01 root
R_mid_tent01 root
spine01 root
Bip01_Neck chest
L_humerus chest
R_humerus chest
weapon_bone chest
Bip01_Head Bip01_Neck
eye_left_bone Bip01_Head
eye_right_bone Bip01_Head
L_forearm L_humerus
L_front_hand L_forearm
L_weapon_bone L_forearm
L_front_hand01_01 L_front_hand
L_front_hand02_01 L_front_hand
L_front_hand03_01 L_front_hand
L_front_hand01_02 L_front_hand01_01
L_front_hand02_02 L_front_hand02_01
L_front_hand03_02 L_front_hand03_01
R_forearm R_humerus
R_front_hand R_forearm
R_weapon_bone R_forearm
R_front_hand01_01 R_front_hand
R_front_hand02_01 R_front_hand
R_front_hand03_01 R_front_hand
R_front_hand01_02 R_front_hand01_01
R_front_hand02_02 R_front_hand02_01
R_front_hand03_02 R_front_hand03_01
null_rope01_connect L_mid_tent01
Rope1_Seg01 null_rope01_connect
Rope1_Seg02 Rope1_Seg01
Rope1_Seg03 Rope1_Seg02
Rope1_Seg04 Rope1_Seg03
Rope1_Seg05 Rope1_Seg04
Rope1_Seg06 Rope1_Seg05
Rope1_Seg07 Rope1_Seg06
Rope1_Seg09 Rope1_Seg07
L_mid_hand01 Rope1_Seg09
L_mid_hand02 Rope1_Seg09
L_mid_hand03 Rope1_Seg09
null_rope02_connect R_mid_tent01
Rope2_Seg01 null_rope02_connect
Rope2_Seg02 Rope2_Seg01
Rope2_Seg03 Rope2_Seg02
Rope2_Seg04 Rope2_Seg03
Rope2_Seg05 Rope2_Seg04
Rope2_Seg06 Rope2_Seg05
Rope2_Seg07 Rope2_Seg06
Rope2_Seg09 Rope2_Seg07
R_mid_hand01 Rope2_Seg09
R_mid_hand02 Rope2_Seg09
R_mid_hand03 Rope2_Seg09
spine02 spine01
spine03 spine02
pelvis spine03
null_rope03_connect pelvis
null_rope04_connect pelvis
Rope3_Seg01 null_rope03_connect
Rope3_Seg02 Rope3_Seg01
Rope3_Seg03 Rope3_Seg02
Rope3_Seg04 Rope3_Seg03
Rope3_Seg05 Rope3_Seg04
Rope3_Seg06 Rope3_Seg05
Rope3_Seg07 Rope3_Seg06
Rope3_Seg08 Rope3_Seg07
Rope3_Seg09 Rope3_Seg08
R_rear_hand01 Rope3_Seg09
R_rear_hand02 Rope3_Seg09
R_rear_hand03 Rope3_Seg09
Rope4_Seg01 null_rope04_connect
Rope4_Seg02 Rope4_Seg01
Rope4_Seg03 Rope4_Seg02
Rope4_Seg04 Rope4_Seg03
Rope4_Seg05 Rope4_Seg04
Rope4_Seg06 Rope4_Seg05
Rope4_Seg07 Rope4_Seg06
Rope4_Seg08 Rope4_Seg07
Rope4_Seg09 Rope4_Seg08
L_rear_hand01 Rope4_Seg09
L_rear_hand02 Rope4_Seg09
L_rear_hand03 Rope4_Seg09
[BasePosition]
#SegmentName Tx, Ty, Tz, Rx, Ry, Rz, BoneLength
MASTER 0.000000 0.000000 0.000000 -90.000000 0.000000 0.000000 10.000000 
root 0.000000 0.000000 0.000000 0.000000 0.000000 0.000000 10.000000 
chest 0.000000 0.000000 0.000000 0.000000 0.000000 0.000000 10.000000 
L_mid_tent01 0.000000 0.000000 0.000000 0.000000 0.000000 0.000000 10.000000 
R_mid_tent01 0.000000 0.000000 0.000000 0.000000 0.000000 0.000000 10.000000 
spine01 0.000000 0.000000 0.000000 0.000000 0.000000 0.000000 10.000000 
Bip01_Neck 0.000000 0.000000 0.000000 0.000000 0.000000 0.000000 10.000000 
L_humerus 0.000000 0.000000 0.000000 0.000000 0.000000 0.000000 10.000000 
R_humerus 0.000000 0.000000 0.000000 0.000000 0.000000 0.000000 10.000000 
weapon_bone 0.000000 0.000000 0.000000 0.000000 0.000000 0.000000 10.000000 
Bip01_Head 0.000000 0.000000 0.000000 0.000000 0.000000 0.000000 10.000000 
eye_left_bone 0.000000 0.000000 0.000000 0.000000 0.000000 0.000000 10.000000 
eye_right_bone 0.000000 0.000000 0.000000 0.000000 0.000000 0.000000 10.000000 
L_forearm 0.000000 0.000000 0.000000 0.000000 0.000000 0.000000 10.000000 
L_front_hand 0.000000 0.000000 0.000000 0.000000 0.000000 0.000000 10.000000 
L_weapon_bone 0.000000 0.000000 0.000000 0.000000 0.000000 0.000000 10.000000 
L_front_hand01_01 0.000000 0.000000 0.000000 0.000000 0.000000 0.000000 10.000000 
L_front_hand02_01 0.000000 0.000000 0.000000 0.000000 0.000000 0.000000 10.000000 
L_front_hand03_01 0.000000 0.000000 0.000000 0.000000 0.000000 0.000000 10.000000 
L_front_hand01_02 0.000000 0.000000 0.000000 0.000000 0.000000 0.000000 10.000000 
L_front_hand02_02 0.000000 0.000000 0.000000 0.000000 0.000000 0.000000 10.000000 
L_front_hand03_02 0.000000 0.000000 0.000000 0.000000 0.000000 0.000000 10.000000 
R_forearm 0.000000 0.000000 0.000000 0.000000 0.000000 0.000000 10.000000 
R_front_hand 0.000000 0.000000 0.000000 0.000000 0.000000 0.000000 10.000000 
R_weapon_bone 0.000000 0.000000 0.000000 0.000000 0.000000 0.000000 10.000000 
R_front_hand01_01 0.000000 0.000000 0.000000 0.000000 0.000000 0.000000 10.000000 
R_front_hand02_01 0.000000 0.000000 0.000000 0.000000 0.000000 0.000000 10.000000 
R_front_hand03_01 0.000000 0.000000 0.000000 0.000000 0.000000 0.000000 10.000000 
R_front_hand01_02 0.000000 0.000000 0.000000 0.000000 0.000000 0.000000 10.000000 
R_front_hand02_02 0.000000 0.000000 0.000000 0.000000 0.000000 0.000000 10.000000 
R_front_hand03_02 0.000000 0.000000 0.000000 0.000000 0.000000 0.000000 10.000000 
null_rope01_connect 0.000000 0.000000 0.000000 0.000000 0.000000 0.000000 10.000000 
Rope1_Seg01 0.000000 0.000000 0.000000 0.000000 0.000000 0.000000 10.000000 
Rope1_Seg02 0.000000 0.000000 0.000000 0.000000 0.000000 0.000000 10.000000 
Rope1_Seg03 0.000000 0.000000 0.000000 0.000000 0.000000 0.000000 10.000000 
Rope1_Seg04 0.000000 0.000000 0.000000 0.000000 0.000000 0.000000 10.000000 
Rope1_Seg05 0.000000 0.000000 0.000000 0.000000 0.000000 0.000000 10.000000 
Rope1_Seg06 0.000000 0.000000 0.000000 0.000000 0.000000 0.000000 10.000000 
Rope1_Seg07 0.000000 0.000000 0.000000 0.000000 0.000000 0.000000 10.000000 
Rope1_Seg09 0.000000 0.000000 0.000000 0.000000 0.000000 0.000000 10.000000 
L_mid_hand01 0.000000 0.000000 0.000000 0.000000 0.000000 0.000000 10.000000 
L_mid_hand02 0.000000 0.000000 0.000000 0.000000 0.000000 0.000000 10.000000 
L_mid_hand03 0.000000 0.000000 0.000000 0.000000 0.000000 0.000000 10.000000 
null_rope02_connect 0.000000 0.000000 0.000000 0.000000 0.000000 0.000000 10.000000 
Rope2_Seg01 0.000000 0.000000 0.000000 0.000000 0.000000 0.000000 10.000000 
Rope2_Seg02 0.000000 0.000000 0.000000 0.000000 0.000000 0.000000 10.000000 
Rope2_Seg03 0.000000 0.000000 0.000000 0.000000 0.000000 0.000000 10.000000 
Rope2_Seg04 0.000000 0.000000 0.000000 0.000000 0.000000 0.000000 10.000000 
Rope2_Seg05 0.000000 0.000000 0.000000 0.000000 0.000000 0.000000 10.000000 
Rope2_Seg06 0.000000 0.000000 0.000000 0.000000 0.000000 0.000000 10.000000 
Rope2_Seg07 0.000000 0.000000 0.000000 0.000000 0.000000 0.000000 10.000000 
Rope2_Seg09 0.000000 0.000000 0.000000 0.000000 0.000000 0.000000 10.000000 
R_mid_hand01 0.000000 0.000000 0.000000 0.000000 0.000000 0.000000 10.000000 
R_mid_hand02 0.000000 0.000000 0.000000 0.000000 0.000000 0.000000 10.000000 
R_mid_hand03 0.000000 0.000000 0.000000 0.000000 0.000000 0.000000 10.000000 
spine02 0.000000 0.000000 0.000000 0.000000 0.000000 0.000000 10.000000 
spine03 0.000000 0.000000 0.000000 0.000000 0.000000 0.000000 10.000000 
pelvis 0.000000 0.000000 0.000000 0.000000 0.000000 0.000000 10.000000 
null_rope03_connect 0.000000 0.000000 0.000000 0.000000 0.000000 0.000000 10.000000 
null_rope04_connect 0.000000 0.000000 0.000000 0.000000 0.000000 0.000000 10.000000 
Rope3_Seg01 0.000000 0.000000 0.000000 0.000000 0.000000 0.000000 10.000000 
Rope3_Seg02 0.000000 0.000000 0.000000 0.000000 0.000000 0.000000 10.000000 
Rope3_Seg03 0.000000 0.000000 0.000000 0.000000 0.000000 0.000000 10.000000 
Rope3_Seg04 0.000000 0.000000 0.000000 0.000000 0.000000 0.000000 10.000000 
Rope3_Seg05 0.000000 0.000000 0.000000 0.000000 0.000000 0.000000 10.000000 
Rope3_Seg06 0.000000 0.000000 0.000000 0.000000 0.000000 0.000000 10.000000 
Rope3_Seg07 0.000000 0.000000 0.000000 0.000000 0.000000 0.000000 10.000000 
Rope3_Seg08 0.000000 0.000000 0.000000 0.000000 0.000000 0.000000 10.000000 
Rope3_Seg09 0.000000 0.000000 0.000000 0.000000 0.000000 0.000000 10.000000 
R_rear_hand01 0.000000 0.000000 0.000000 0.000000 0.000000 0.000000 10.000000 
R_rear_hand02 0.000000 0.000000 0.000000 0.000000 0.000000 0.000000 10.000000 
R_rear_hand03 0.000000 0.000000 0.000000 0.000000 0.000000 0.000000 10.000000 
Rope4_Seg01 0.000000 0.000000 0.000000 0.000000 0.000000 0.000000 10.000000 
Rope4_Seg02 0.000000 0.000000 0.000000 0.000000 0.000000 0.000000 10.000000 
Rope4_Seg03 0.000000 0.000000 0.000000 0.000000 0.000000 0.000000 10.000000 
Rope4_Seg04 0.000000 0.000000 0.000000 0.000000 0.000000 0.000000 10.000000 
Rope4_Seg05 0.000000 0.000000 0.000000 0.000000 0.000000 0.000000 10.000000 
Rope4_Seg06 0.000000 0.000000 0.000000 0.000000 0.000000 0.000000 10.000000 
Rope4_Seg07 0.000000 0.000000 0.000000 0.000000 0.000000 0.000000 10.000000 
Rope4_Seg08 0.000000 0.000000 0.000000 0.000000 0.000000 0.000000 10.000000 
Rope4_Seg09 0.000000 0.000000 0.000000 0.000000 0.000000 0.000000 10.000000 
L_rear_hand01 0.000000 0.000000 0.000000 0.000000 0.000000 0.000000 10.000000 
L_rear_hand02 0.000000 0.000000 0.000000 0.000000 0.000000 0.000000 10.000000 
L_rear_hand03 0.000000 0.000000 0.000000 0.000000 0.000000 0.000000 10.000000 
#Beginning of Data. Separated by tabs
#Fr	Tx	Ty	Tz	Rx	Ry	Rz	SF
[MASTER]
123 -0.000074 554.566467 0.000000 0.001660 0.001660 0.001660 554.566467
124 -0.000074 554.566467 0.000000 0.001660 0.001660 0.001660 554.566467
[root]
123 188.732895 1220.713989 1208.510376 -85.213890 -24.357025 -96.184425 1728.079834
124 194.391388 1262.755981 1175.039551 -84.494713 -24.355606 -96.183662 1735.816406
[chest]
123 -84.512650 -34.090519 0.000000 6.203708 12.261329 -171.692429 91.129311
124 -84.512650 -34.090519 0.000000 5.496638 13.828497 -175.568024 91.129311
[L_mid_tent01]
123 27.509758 22.057072 -251.268570 9.354449 13.186223 76.396515 253.730545
124 27.503317 22.060762 -251.227173 9.362575 13.442900 76.435921 253.689163
[R_mid_tent01]
123 23.228794 24.509907 226.238495 152.894150 -16.678127 87.959885 228.744751
124 23.228794 24.509907 226.238495 152.137283 -20.504845 88.887550 228.744751
[spine01]
123 -0.361383 -0.195265 0.000000 0.001869 0.001420 15.534141 0.410763
124 -0.361383 -0.195265 0.000000 0.001869 0.001420 15.534141 0.410763
[Bip01_Neck]
123 165.484543 71.581718 0.000119 175.896118 1.177290 24.871183 180.302734
124 165.484543 71.581718 0.000119 175.896118 1.177290 24.871183 180.302734
[L_humerus]
123 -13.983130 -135.272980 -120.471481 169.501572 19.104422 -115.699120 181.680161
124 -13.983130 -135.272980 -120.471481 169.898178 19.902365 -115.210976 181.680161
[R_humerus]
123 -13.983309 -135.273102 125.287651 -177.716431 -7.147228 -116.033127 184.909012
124 -13.983309 -135.273102 125.287651 -177.463837 -7.616659 -115.726753 184.909012
[weapon_bone]
123 235.964890 -300.705902 0.000000 0.000000 -89.951546 -128.212341 382.234833
124 235.964890 -300.705902 0.000000 0.000000 -89.951546 -128.212341 382.234833
[Bip01_Head]
123 184.789215 164.351746 13.926997 -28.270947 4.418443 -51.032787 247.694397
124 184.855896 165.478836 13.999805 -28.619919 4.525040 -50.779404 248.497360
[eye_left_bone]
123 -24.626970 125.451866 -64.772606 0.000000 -90.000000 -99.840431 143.318359
124 -24.626970 125.451866 -64.772606 0.000000 -90.000000 -99.840431 143.318359
[eye_right_bone]
123 -24.626970 125.451866 64.327362 0.000000 -89.960434 80.159386 143.117676
124 -24.626970 125.451866 64.327362 0.000000 -89.960434 80.159386 143.117676
[L_forearm]
123 322.776093 0.000000 -0.000119 0.000287 -0.002330 -104.039024 322.776093
124 322.776093 0.000000 -0.000119 0.000270 -0.002332 -103.195824 322.776093
[L_front_hand]
123 241.149185 -0.042021 -3.300071 -178.667953 -1.835447 -27.422346 241.171753
124 241.149185 -0.042021 -3.300071 -178.667953 -1.835447 -27.422350 241.171753
[L_weapon_bone]
123 156.183838 0.000000 0.000000 0.000014 0.000007 0.000001 156.183838
124 156.183838 0.000000 0.000000 0.000014 0.000007 0.000001 156.183838
[L_front_hand01_01]
123 86.095154 20.947098 -0.655860 -0.366594 -0.477154 75.385574 88.609184
124 86.095154 20.947098 -0.655860 -0.366594 -0.477154 75.385574 88.609184
[L_front_hand02_01]
123 86.935165 -11.437475 24.513514 154.403519 -59.888931 -61.371990 91.046425
124 86.935165 -11.437475 24.513514 154.403519 -59.888931 -61.371990 91.046425
[L_front_hand03_01]
123 86.637497 -14.123976 -20.424902 -153.913849 58.118122 -62.702850 90.126129
124 86.637497 -14.123976 -20.424902 -153.913849 58.118122 -62.702866 90.126129
[L_front_hand01_02]
123 71.020905 -0.000179 0.000030 0.000334 -0.002323 -106.379684 71.020905
124 71.020905 -0.000179 0.000030 0.000334 -0.002323 -106.379684 71.020905
[L_front_hand02_02]
123 71.020927 -0.000119 0.000060 0.000334 -0.002323 -106.379684 71.020927
124 71.020927 -0.000119 0.000060 0.000334 -0.002323 -106.379684 71.020927
[L_front_hand03_02]
123 71.020905 -0.000060 0.000060 0.000334 -0.002323 -106.379684 71.020905
124 71.020905 -0.000060 0.000060 0.000334 -0.002323 -106.379684 71.020905
[R_forearm]
123 322.776428 -0.000060 0.000030 0.209842 -0.000803 -90.843094 322.776428
124 322.776428 -0.000060 0.000030 0.211572 -0.005929 -89.629814 322.776428
[R_front_hand]
123 238.847015 -0.006795 2.210259 -116.534431 0.789243 -51.441441 238.857239
124 238.847015 -0.006795 2.210259 -116.534431 0.789243 -51.441441 238.857239
[R_weapon_bone]
123 155.664093 0.002503 -0.000030 0.003487 0.001180 -90.988930 155.664078
124 155.664093 0.002503 -0.000030 0.003487 0.001180 -90.988930 155.664078
[R_front_hand01_01]
123 87.624611 14.231146 22.918642 -154.633499 -59.950619 61.746044 91.683487
124 87.624611 14.231146 22.918642 -154.633499 -59.950619 61.746044 91.683487
[R_front_hand02_01]
123 89.356956 14.367283 -19.491137 154.602661 58.302849 63.744389 92.579636
124 89.356956 14.367283 -19.491137 154.602661 58.302849 63.744389 92.579636
[R_front_hand03_01]
123 87.286232 -22.307278 -0.143439 0.162155 -0.423168 -75.767921 90.091743
124 87.286232 -22.307278 -0.143439 0.162155 -0.423168 -75.767921 90.091743
[R_front_hand01_02]
123 71.020905 0.000060 0.000119 0.002323 -0.000334 106.381714 71.020905
124 71.020905 0.000060 0.000119 0.002323 -0.000334 106.381714 71.020905
[R_front_hand02_02]
123 71.020844 -0.000030 -0.000119 0.002323 -0.000334 106.381714 71.020836
124 71.020844 -0.000030 -0.000119 0.002323 -0.000334 106.381714 71.020836
[R_front_hand03_02]
123 71.020905 0.000000 0.000030 0.002323 -0.000334 106.381714 71.020905
124 71.020905 0.000000 0.000030 0.002323 -0.000334 106.381714 71.020905
[null_rope01_connect]
123 328.732483 0.000000 -0.000238 -90.656708 -70.323502 129.175949 328.732483
124 328.732483 0.000000 -0.000238 -89.350739 -70.463058 127.793907 328.732483
[Rope1_Seg01]
123 6.836318 -3.967594 1.237631 133.775604 64.323891 -22.454678 8.000547
124 6.828232 -3.974369 1.259001 139.232162 60.448971 -14.005157 8.000340
[Rope1_Seg02]
123 139.999863 -0.000179 0.000000 0.080137 1.477083 -1.970890 139.999863
124 139.999863 -0.000179 0.000000 -0.230863 1.986660 -1.713895 139.999863
[Rope1_Seg03]
123 139.999924 0.000060 -0.000060 0.144796 2.688299 -3.601916 139.999924
124 139.999924 0.000060 -0.000060 -0.536478 3.609286 -3.098377 139.999924
[Rope1_Seg04]
123 139.999924 -0.000060 -0.000119 -6.102604 12.650632 -4.198915 139.999924
124 139.999924 -0.000060 -0.000119 -9.144577 14.016569 -1.724890 139.999924
[Rope1_Seg05]
123 139.999832 0.000119 -0.000060 100.015144 10.239423 -68.077797 139.999832
124 139.999832 0.000119 -0.000060 125.667366 24.608408 -62.155296 139.999832
[Rope1_Seg06]
123 139.999954 0.000119 -0.000060 6.101810 -26.066578 12.775464 139.999954
124 139.999954 0.000119 -0.000060 -2.028327 -21.504505 22.192661 139.999954
[Rope1_Seg07]
123 139.999985 0.000060 0.000000 1.032453 -5.225716 2.370740 139.999985
124 139.999985 0.000060 0.000000 0.623471 -4.908491 3.633738 139.999985
[Rope1_Seg09]
123 121.602913 0.000119 -0.000089 -89.793175 -1.359789 0.847147 121.602913
124 121.602913 0.000119 -0.000089 -89.793175 -1.359789 0.847147 121.602913
[L_mid_hand01]
123 103.859421 1.038730 8.195221 116.294914 -23.111713 -31.758034 104.187431
124 103.859421 1.038730 8.195221 116.294914 -23.111713 -31.758034 104.187431
[L_mid_hand02]
123 105.572853 -4.139662 -10.864139 -144.219833 17.447468 -35.360519 106.211075
124 105.572853 -4.139662 -10.864139 -144.219833 17.447466 -35.360519 106.211075
[L_mid_hand03]
123 104.641464 17.579376 -3.913581 -17.830778 17.153101 31.982922 106.179977
124 104.641464 17.579376 -3.913581 -17.830780 17.153103 31.982925 106.179977
[null_rope02_connect]
123 328.732849 0.000179 -0.000119 -101.154785 62.165936 46.895584 328.732849
124 328.732849 0.000179 -0.000119 -106.737038 58.653118 40.709969 328.732849
[Rope2_Seg01]
123 0.000011 0.000277 0.000000 74.600296 31.391827 6.907250 0.000277
124 0.000010 0.000278 0.000000 73.177170 28.305716 3.618489 0.000278
[Rope2_Seg02]
123 139.999741 -0.000060 -0.000119 1.142326 11.086287 -0.329731 139.999756
124 139.999741 -0.000060 -0.000119 1.821712 12.008981 0.282786 139.999756
[Rope2_Seg03]
123 140.000107 0.000030 0.000000 -0.152395 21.784395 -1.140700 140.000107
124 140.000107 0.000030 0.000000 0.534802 23.147438 -0.206892 140.000107
[Rope2_Seg04]
123 139.999802 0.000000 -0.000060 -7.823514 34.583603 -2.006317 139.999802
124 139.999802 0.000000 -0.000060 -6.242429 32.927814 -0.719005 139.999802
[Rope2_Seg05]
123 139.999985 -0.000060 0.000119 -11.472561 17.837587 1.380389 139.999985
124 139.999985 -0.000060 0.000119 -7.986329 15.354263 1.514895 139.999985
[Rope2_Seg06]
123 139.999893 -0.000030 -0.000119 -11.593770 9.175294 2.649494 139.999893
124 139.999893 -0.000030 -0.000119 -7.682975 8.447400 2.147503 139.999893
[Rope2_Seg07]
123 139.999893 0.000060 -0.000060 -14.114463 6.856517 3.631133 139.999893
124 139.999893 0.000060 -0.000060 -8.665671 6.491413 2.584844 139.999893
[Rope2_Seg09]
123 121.338966 0.000089 -0.000060 33.793236 -1.359788 -0.847141 121.338966
124 121.338966 0.000089 -0.000060 33.793236 -1.359788 -0.847141 121.338966
[R_mid_hand01]
123 104.680779 11.144459 -10.335981 -41.523792 25.424656 28.595957 105.778534
124 104.680779 11.144459 -10.335981 -41.523792 25.424656 28.595957 105.778534
[R_mid_hand02]
123 104.070427 2.443552 8.231699 72.847389 -32.746803 10.013901 104.424065
124 104.070427 2.443552 8.231699 72.847389 -32.746803 10.013901 104.424065
[R_mid_hand03]
123 106.028137 -11.221827 -5.996406 -167.901306 10.259192 -37.009720 106.788818
124 106.028137 -11.221827 -5.996406 -167.901306 10.259192 -37.009720 106.788818
[spine02]
123 129.756927 0.001550 0.000119 -0.245322 -4.052059 -4.355546 129.756927
124 129.756927 0.001550 0.000119 -0.245322 -4.052060 -4.355547 129.756927
[spine03]
123 78.613846 0.087372 -4.898873 0.369659 4.260734 -4.885720 78.766380
124 78.613846 0.087372 -4.898873 0.369659 4.260734 -4.885720 78.766380
[pelvis]
123 169.435242 0.051022 0.000000 -0.010007 -0.191417 -1.897554 169.435257
124 169.435242 0.051022 0.000000 -0.010007 -0.191417 -1.897554 169.435257
[null_rope03_connect]
123 -1.257226 -2.466202 137.391083 -40.262768 -83.708862 150.481796 137.418976
124 -1.257226 -2.466202 137.391083 -34.610569 -83.368919 144.865829 137.418976
[null_rope04_connect]
123 -1.259640 -2.480268 -137.844437 -40.262768 -83.708862 150.481796 137.872513
124 -1.259640 -2.480268 -137.844437 -34.610569 -83.368919 144.865829 137.872513
[Rope3_Seg01]
123 0.000000 0.000000 0.000000 15.869735 -5.944114 -124.623085 0.000000
124 0.000000 0.000000 0.000000 15.423166 -5.823218 -126.064163 0.000000
[Rope3_Seg02]
123 139.999924 -0.000119 0.000060 3.599599 -2.161780 3.155951 139.999924
124 139.999924 -0.000119 0.000060 3.906946 -2.272408 3.240789 139.999924
[Rope3_Seg03]
123 139.999924 -0.000119 0.000119 5.626091 -3.545218 5.973333 139.999924
124 139.999924 -0.000119 0.000119 6.028262 -3.663024 6.099845 139.999924
[Rope3_Seg04]
123 139.999924 0.000119 0.000000 9.411202 -7.352245 16.082895 139.999924
124 139.999924 0.000119 0.000000 9.754653 -7.228698 15.888349 139.999924
[Rope3_Seg05]
123 139.999924 -0.000238 0.000060 0.461089 -13.005081 57.348885 139.999924
124 139.999924 -0.000238 0.000060 2.391160 -12.177410 54.320744 139.999924
[Rope3_Seg06]
123 139.999893 -0.000119 -0.000060 -9.359515 -3.172765 29.385765 139.999893
124 139.999893 -0.000119 -0.000060 -7.749488 -2.469470 29.534250 139.999893
[Rope3_Seg07]
123 139.999771 0.000060 -0.000119 -8.623325 -1.919365 15.114850 139.999771
124 139.999771 0.000060 -0.000119 -6.825766 -1.108588 14.299633 139.999771
[Rope3_Seg08]
123 139.999985 -0.000060 0.000000 -17.622904 -4.966280 16.743351 139.999985
124 139.999985 -0.000060 0.000000 -14.058836 -3.409030 15.868570 139.999985
[Rope3_Seg09]
123 90.185997 -0.000179 -0.000060 89.793228 -1.359877 -0.847183 90.185997
124 90.185997 -0.000179 -0.000060 89.793228 -1.359877 -0.847183 90.185997
[R_rear_hand01]
123 103.366196 -6.073594 -10.757982 -161.551193 16.666374 -30.088671 104.101845
124 103.366196 -6.073594 -10.757982 -161.551193 16.666374 -30.088671 104.101845
[R_rear_hand02]
123 100.509819 12.039542 -7.992327 -34.280552 19.289745 28.875523 101.543350
124 100.509819 12.039542 -7.992327 -34.280552 19.289745 28.875523 101.543350
[R_rear_hand03]
123 101.539970 5.215704 5.435467 83.366440 -30.933914 7.284830 101.819031
124 101.539970 5.215704 5.435467 83.366440 -30.933914 7.284830 101.819031
[Rope4_Seg01]
123 -0.000007 -0.000014 0.000028 -90.576126 -26.196224 -127.931084 0.000033
124 -0.000007 -0.000014 0.000027 -83.890816 -34.806007 -135.383224 0.000031
[Rope4_Seg02]
123 139.999985 0.000060 0.000119 3.007004 9.164317 -9.576684 139.999985
124 139.999985 0.000060 0.000119 3.078235 8.666601 -8.486171 139.999985
[Rope4_Seg03]
123 139.999924 0.000000 -0.000238 5.086391 11.758204 -14.376738 139.999924
124 139.999924 0.000000 -0.000238 4.727583 9.976440 -11.407278 139.999924
[Rope4_Seg04]
123 139.999985 0.000000 0.000119 5.794298 8.034998 -16.787107 139.999985
124 139.999985 0.000000 0.000119 5.202646 6.240510 -13.247199 139.999985
[Rope4_Seg05]
123 139.999802 -0.000060 -0.000119 4.708802 7.974137 -13.052778 139.999802
124 139.999802 -0.000060 -0.000119 4.822085 8.340064 -10.806693 139.999802
[Rope4_Seg06]
123 139.999924 0.000000 0.000060 6.889519 14.300939 -17.112970 139.999924
124 139.999924 0.000000 0.000060 7.537784 14.691593 -12.292869 139.999924
[Rope4_Seg07]
123 139.999802 0.000000 0.000000 7.754115 10.726138 -17.922493 139.999802
124 139.999802 0.000000 0.000000 8.732929 10.650661 -12.493615 139.999802
[Rope4_Seg08]
123 139.999924 0.000000 0.000119 2.731947 3.570442 -10.077998 139.999924
124 139.999924 0.000000 0.000119 3.944512 4.226151 -7.975989 139.999924
[Rope4_Seg09]
123 90.185791 0.000060 0.000060 -135.617828 2.228885 0.850567 90.185791
124 90.185791 0.000060 0.000060 -135.617828 2.228885 0.850567 90.185791
[L_rear_hand01]
123 101.696655 -8.392275 -7.654577 -34.454281 -18.946800 151.655121 102.329041
124 101.696655 -8.392275 -7.654577 -34.454281 -18.946800 151.655121 102.329041
[L_rear_hand02]
123 102.726799 -1.568258 5.773216 83.407906 30.330435 172.796509 102.900848
124 102.726799 -1.568258 5.773216 83.407906 30.330435 172.796509 102.900848
[L_rear_hand03]
123 104.552910 9.721220 -10.420293 -161.379868 -16.473232 -150.512238 105.519653
124 104.552910 9.721220 -10.420293 -161.379868 -16.473232 -150.512238 105.519653
